<?xml version="1.0" encoding="UTF-8" standalone="no"?>
<svg
   width="100"
   height="200"
   viewBox="0 0 100 200">
  <path
     style="fill:#20B2AA"
     d="m 79.685671,196.34472 c 0,-2.49349 -0.203669,-3.77217 -0.640799,-4.02299 -1.113694,-0.63901 -2.000732,-4.07082 -1.687192,-6.52747 0.410426,-3.21571 -0.08743,-5.6354 -1.215865,-5.90922 -0.50346,-0.12218 -0.915382,-0.6118 -0.915382,-1.08805 0,-0.47625 -0.222962,-0.86592 -0.495471,-0.86592 -0.272509,0 -0.495471,-0.31034 -0.495471,-0.68965 0,-0.37932 -0.330201,-0.68966 -0.733772,-0.68966 -0.403572,0 -0.87366,-0.51724 -1.044649,-1.14943 -0.170989,-0.63218 -0.509675,-1.14942 -0.752652,-1.14942 -0.242956,0 -0.441753,-0.82759 -0.441753,-1.83908 0,-1.0115 -0.222962,-1.83908 -0.495471,-1.83908 -0.272509,0 -0.495471,0.31034 -0.495471,0.68965 0,0.37931 -0.334443,0.68966 -0.743207,0.68966 -0.412892,0 -0.743206,0.40869 -0.743206,0.91954 0,0.51085 -0.330314,0.91954 -0.743206,0.91954 -0.408764,0 -0.743207,-0.40103 -0.743207,-0.89115 0,-0.68152 -0.312322,-0.87081 -1.327645,-0.8046 -1.031561,0.0672 -1.406199,-0.16979 -1.679833,-1.06287 -0.193698,-0.63219 -0.25302,3.24712 -0.131826,8.62069 0.194369,8.61764 0.129524,9.77011 -0.549787,9.77011 -0.60816,0 -0.782442,-0.60438 -0.828624,-2.87356 -0.0321,-1.58046 -0.175025,-4.01149 -0.317473,-5.4023 -0.142447,-1.3908 -0.283357,-3.20115 -0.313127,-4.02299 -0.02983,-0.82184 -0.317814,-1.49425 -0.640076,-1.49425 -0.838141,0 -1.071394,-1.09013 -1.180532,-5.51724 -0.122288,-4.96059 -0.108126,-5.05747 0.739212,-5.05747 0.388779,0 0.802694,0.25862 0.919821,0.57471 0.117127,0.31609 0.111594,0.16092 -0.01228,-0.34483 -0.123888,-0.50575 -0.49546,-2.72508 -0.825733,-4.93184 -0.592903,-3.96159 -1.284157,-5.8029 -1.284157,-3.42065 0,0.85197 -0.264561,1.23341 -0.867075,1.25017 -0.727919,0.0202 -0.688157,0.13993 0.247736,0.74573 1.25701,0.81367 1.505127,2.44854 0.371603,2.44854 -0.578049,0 -0.743206,0.61303 -0.743206,2.75863 0,2.4521 -0.110108,2.75862 -0.990942,2.75862 -0.770736,0 -0.990942,-0.30652 -0.990942,-1.37931 0,-0.89114 -0.25139,-1.37931 -0.710299,-1.37931 -0.394509,0 -0.802054,-0.56211 -0.916704,-1.26437 -0.113525,-0.69541 -0.239818,0.33908 -0.280643,2.29885 -0.04088,1.95977 -0.245,3.56322 -0.453707,3.56322 -0.208717,0 -0.295528,2.27586 -0.192934,5.05747 0.183778,4.98208 0.170019,5.05747 -0.922526,5.05747 -1.016428,0 -1.082604,-0.15363 -0.792165,-1.83908 0.325607,-1.8895 0.171237,-2.04924 -1.800542,-1.86312 -0.73244,0.0692 -0.867074,-0.31528 -0.867074,-2.4758 0,-1.40669 -0.217832,-2.55763 -0.484065,-2.55763 -0.266769,0 -0.464989,-1.25715 -0.441578,-2.80057 0.02343,-1.5403 -0.204722,-3.02996 -0.506877,-3.31034 -0.302144,-0.28038 -0.549364,-0.95696 -0.549364,-1.5035 0,-1.56297 -2.371313,-0.96619 -2.573373,0.64763 -0.176934,1.41318 -1.696977,1.92035 -2.011529,0.67118 -0.115063,-0.45696 -0.13545,2.32433 -0.04531,6.18065 0.126913,5.42866 0.0223,7.0115 -0.4631,7.0115 -0.64082,0 -1.843307,-3.91624 -1.843307,-6.00324 0,-0.6318 -0.397048,-1.46419 -0.88232,-1.84976 -0.611112,-0.48555 -1.078878,-1.98964 -1.521736,-4.89315 -0.424072,-2.78039 -0.877851,-4.27702 -1.347475,-4.44425 -0.610596,-0.21743 -0.613568,-0.0422 -0.02157,1.27247 0.377569,0.83853 0.846543,2.60448 1.042161,3.92434 0.325049,2.19307 0.265944,2.42151 -0.6863,2.65258 -0.573095,0.13907 -1.041975,0.43562 -1.041975,0.659 0,0.81426 -1.378163,0.38018 -1.629976,-0.51339 -0.14253,-0.50575 -0.614456,-0.91954 -1.048736,-0.91954 -0.43426,0 -0.789575,-0.2069 -0.789575,-0.45977 0,-0.25288 -0.222962,-0.45977 -0.495471,-0.45977 -0.725462,0 -0.604691,0.75251 0.247736,1.54351 0.849144,0.78797 0.98033,1.67488 0.247735,1.67488 -0.272509,0 -0.495471,0.70689 -0.495471,1.57088 0,0.86398 -0.278702,1.67524 -0.619338,1.80279 -0.495471,0.18551 -0.495471,0.23915 0,0.26819 0.731387,0.0428 0.85797,3.30662 0.153874,3.96733 -0.287548,0.26984 -0.293742,1.66691 -0.01621,3.65518 0.706717,5.06289 0.613971,8.96551 -0.213073,8.96551 -0.832226,0 -1.754081,-2.25957 -1.85685,-4.55137 -0.06235,-1.38933 -0.107434,-1.45223 -0.280653,-0.39115 -0.221434,1.35642 -1.336801,1.70974 -1.807117,0.57243 -0.157374,-0.38057 -0.552027,-2.96677 -0.876994,-5.74713 -0.324967,-2.78035 -0.761115,-5.05519 -0.969213,-5.05519 -0.208098,0 -0.494501,-0.36207 -0.636453,-0.8046 -0.141942,-0.44253 -0.140229,0.26235 0.0041,1.56639 0.23957,2.16879 0.165384,2.39942 -0.869944,2.70434 -1.55166,0.45699 -2.416742,1.34401 -2.416742,2.47804 0,0.54004 -0.321767,0.95238 -0.743207,0.95238 -0.542613,0 -0.745653,-0.52736 -0.75228,-1.95402 -0.0052,-1.07471 -0.333544,-4.07202 -0.730128,-6.66069 -0.396583,-2.58867 -0.591602,-5.01971 -0.433382,-5.4023 0.39199,-0.9479 1.543753,-0.87902 1.821991,0.10896 0.205817,0.73083 0.23186,0.72688 0.28406,-0.043 0.03241,-0.47778 -0.356605,-0.94813 -0.891497,-1.07793 -0.521937,-0.12665 -1.105705,-0.7797 -1.297256,-1.4512 -0.455276,-1.59601 -1.702789,-10.23612 -1.902278,-13.17496 -0.08588,-1.26436 -0.412521,-3.54023 -0.725989,-5.05747 -0.313468,-1.51724 -0.571237,-3.51235 -0.572816,-4.43357 -0.0021,-1.12026 -0.269526,-1.7699 -0.808082,-1.96167 -0.635834,-0.22641 -0.739068,-0.67058 -0.490754,-2.11153 0.261578,-1.51794 0.147021,-1.92183 -0.6812,-2.40179 -0.755769,-0.43799 -0.997487,-1.07653 -1.003247,-2.65031 -0.0052,-1.34347 -0.15822,-1.85268 -0.435498,-1.44656 -0.235359,0.34471 -0.311383,3.29299 -0.168956,6.55172 0.231127,5.2878 0.171392,5.92497 -0.555433,5.92497 -0.533137,0 -0.81441,-0.38761 -0.81441,-1.12229 0,-0.61726 -0.217769,-1.24719 -0.483941,-1.39984 -0.266171,-0.15264 -0.433392,-1.66486 -0.371603,-3.36047 0.08547,-2.34615 -0.08186,-3.26309 -0.7000995,-3.83682 -0.7529299,-0.69869 -0.8531182,-0.67104 -1.3679952,0.37757 -0.7402026,1.50751 -2.0944486,1.22373 -2.9709058,-0.62255 -0.3806559,-0.80186 -1.0880233,-1.554 -1.5719229,-1.67143 -0.509179,-0.12355 -0.969069,-0.7682 -1.0916774,-1.53022 -0.1807747,-1.12353 -0.2227452,-1.06376 -0.2860932,0.40742 -0.049547,1.15087 -0.3082552,1.72414 -0.7780752,1.72414 -1.07994094,0 -1.41271171,-2.39851 -1.02684304,-7.40118 0.2643751,-3.42761 0.52163814,-4.55284 1.04092264,-4.55284 0.9414568,0 0.8695516,-0.92606 -0.12426,-1.6004 -0.66467434,-0.45099 -0.80454164,-1.36712 -0.76235434,-4.99321 0.034064,-2.92672 -0.132394,-4.44088 -0.48816284,-4.44088 -0.38234875,0 -0.42674501,-1.91136 -0.15219216,-6.55172 C 0.38897041,99.729936 0.5154497,94.577526 0.45683961,91.883566 0.39822991,89.189606 0.54573571,86.873422 0.78448046,86.736468 1.0328973,86.593996 1.0303477,84.95209 0.77828716,82.898929 0.27512599,78.796717 0.58065609,53.98704 1.1497459,52.736093 1.3567082,52.28115 1.8881731,51.975881 2.3307732,52.05772 c 1.261882,0.233324 3.0762347,-1.776175 3.3194077,-3.676433 0.2091301,-1.634225 0.1940388,-1.655325 -0.3218497,-0.450211 -0.2976954,0.695402 -0.8771384,1.264368 -1.2876567,1.264368 -0.6357409,0 -0.6924207,-0.596373 -0.3823385,-4.022989 0.3531263,-3.902171 0.493551,-6.259266 0.6436994,-10.804599 0.063689,-1.928961 0.2022863,-2.187311 1.1869523,-2.213053 L 6.6037974,32.125653 5.4889877,31.709842 C 4.2871816,31.261553 4.1165434,30.534078 4.823405,28.872216 5.0704696,28.291353 5.5323827,26.626444 5.8498764,25.172421 6.21797,23.486648 6.6754239,22.528743 7.112357,22.528743 c 0.9411678,0 1.1690019,-1.603325 1.6734223,-11.776211 C 9.2099437,2.196115 9.6615135,4e-6 10.996652,4e-6 c 0.906196,0 1.572058,1.49338 2.622208,5.880983 l 0.912379,3.812018 1.858016,-0.289212 c 1.510402,-0.235103 1.858016,-0.149924 1.858016,0.455287 0,0.409473 0.334443,0.863588 0.743207,1.009144 0.484519,0.172529 0.743206,0.887655 0.743206,2.054536 0,0.98444 0.20144,1.78989 0.447648,1.78989 0.613496,0 0.93867,-4.510598 0.447245,-6.203862 -0.672385,-2.316828 -0.498351,-7.129473 0.25782,-7.129473 0.45444,0 0.94444,1.640255 1.588016,5.315766 0.942282,5.381453 1.267043,5.628372 1.92795,1.465844 0.451436,-2.843261 1.589821,-2.938248 2.03718,-0.169981 0.17901,1.107659 0.08113,3.474878 -0.217377,5.260484 -0.629837,3.766941 -0.664489,9.164968 -0.07577,11.806051 0.229651,1.030236 0.435003,1.384105 0.466919,0.804598 0.06204,-1.125876 0.996176,-1.358365 1.939769,-0.482759 0.46244,0.429119 0.595783,0.09706 0.600015,-1.494253 0.0083,-3.220414 0.545793,-5.494254 1.298052,-5.494254 0.672953,0 0.881794,-1.995027 0.697881,-6.666667 -0.08454,-2.147819 0.940951,-3.733946 2.138473,-3.307525 0.888545,0.3164 1.12089,2.388087 0.319383,2.847755 -0.272509,0.156284 -0.495471,2.030563 -0.495471,4.165065 0,3.518154 0.08877,3.880913 0.949653,3.880913 0.522309,0 1.062114,0.25862 1.199566,0.574712 0.199922,0.45977 0.257727,0.45977 0.289014,0 0.02147,-0.316092 0.399567,-0.574712 0.840113,-0.574712 0.557064,0 0.722076,0.280037 0.541859,0.91954 -0.14253,0.505747 -0.05708,0.91954 0.189951,0.91954 0.246992,0 0.449083,-0.724138 0.449083,-1.609195 0,-1.184493 0.214312,-1.609196 0.812025,-1.609196 0.692101,0 0.772212,-0.407371 0.542458,-2.758621 -0.187825,-1.922017 -0.096,-2.760756 0.302784,-2.765661 0.374824,-0.0046 0.396997,-0.123614 0.0642,-0.344828 -0.604712,-0.401999 -0.834239,-4.705604 -0.250976,-4.705604 0.222156,0 0.54382,-0.517242 0.714809,-1.149426 0.170989,-0.632184 0.667998,-1.149425 1.104467,-1.149425 0.696364,0 0.768383,0.702416 0.587856,5.734196 -0.163268,4.550937 -0.06627,5.78384 0.469923,5.974782 0.533777,0.190072 0.602998,1.013339 0.329664,3.920978 l -0.345953,3.680391 h 1.261366 c 1.5619,0 1.775778,-0.518324 1.460287,-3.538943 -0.236763,-2.266824 -0.183995,-2.404792 1.027556,-2.686963 1.782591,-0.415164 2.318288,0.03818 2.36352,2.000166 0.02147,0.933353 0.151573,1.438384 0.289014,1.122292 0.296736,-0.682394 1.653748,-0.776713 1.653748,-0.114943 0,0.252874 0.310588,0.45977 0.690191,0.45977 0.757586,0 1.291693,0.966111 1.291693,2.336455 0,1.020969 -1.386937,1.197694 -1.78801,0.22783 -0.230921,-0.558431 -1.680287,-1.430491 -1.680287,-1.011008 0,0.397801 1.841398,1.995746 2.601223,2.25731 0.505246,0.173928 0.867074,0.772837 0.867074,1.435206 0,0.625197 0.222962,1.26459 0.495471,1.420875 0.272509,0.156284 0.495471,0.685736 0.495471,1.17656 0,0.490823 0.334443,0.892406 0.743206,0.892406 0.479131,0 0.745148,-0.449248 0.748657,-1.264368 0.01115,-2.584763 0.618327,-4.668604 1.417924,-4.866355 0.665748,-0.164645 0.64882,-0.208686 -0.09713,-0.252726 -0.577059,-0.03407 -0.843478,-0.34208 -0.737519,-0.852652 0.205568,-0.990517 1.888663,-1.376397 1.888663,-0.433009 0,0.370797 0.288715,0.776985 0.641593,0.90264 0.484654,0.172576 0.605868,-0.349626 0.495554,-2.134717 -0.213548,-3.45558 0.319496,-6.730999 1.095414,-6.730999 0.373389,0 0.793352,0.769981 0.980454,1.797623 0.253754,1.393722 0.597507,1.860557 1.529963,2.077725 0.90344,0.210412 1.204356,0.592503 1.209434,1.535711 0.01187,2.206755 0.531909,3.403897 1.241289,2.857589 0.347346,-0.267501 0.517066,-0.89255 0.377157,-1.389001 -0.176491,-0.626298 -0.0052,-0.902635 0.559015,-0.902635 0.512111,0 0.926448,0.52462 1.11865,1.416396 0.215096,0.998005 0.427643,1.235676 0.719506,0.804598 0.227834,-0.336489 0.289427,-0.983795 0.136874,-1.438459 -0.152543,-0.454664 -0.0641,-1.075354 0.196547,-1.379311 0.444706,-0.518599 1.19232,-4.020832 1.295719,-6.069891 0.07401,-1.466579 2.160718,-1.490696 2.758431,-0.03188 0.695228,1.696835 1.104229,1.454971 0.723573,-0.42789 -0.256777,-1.270129 -0.165404,-1.609195 0.433651,-1.609195 0.72537,0 1.388981,1.717147 1.243777,3.218391 -0.03664,0.37931 -0.03159,1.355576 0.01135,2.169478 0.06276,1.189985 0.242977,1.421098 0.92008,1.179992 0.526665,-0.187541 0.619452,-0.368678 0.247735,-0.483656 -0.714603,-0.221031 -0.805801,-2.865817 -0.09885,-2.865817 0.272509,0 0.495471,-0.413793 0.495471,-0.91954 0,-0.505748 -0.222962,-0.919541 -0.495471,-0.919541 -0.272509,0 -0.495471,-0.310345 -0.495471,-0.689655 0,-0.37931 0.278702,-0.686487 0.619338,-0.682615 1.584836,0.01802 2.050022,0.925252 2.394931,4.670673 0.390029,4.235405 1.355176,7.276311 2.309411,7.276311 0.429873,0 0.621971,-0.852014 0.621971,-2.758621 0,-2.145594 0.165157,-2.758621 0.743207,-2.758621 0.408763,0 0.743206,-0.310345 0.743206,-0.689655 0,-0.37931 0.334443,-0.689655 0.743207,-0.689655 0.555371,0 0.74492,0.55196 0.749967,2.183908 0.0093,2.964489 0.420304,4.17076 1.533152,4.498515 0.581153,0.171163 0.937438,0.701167 0.937438,1.394538 0,0.886491 0.256891,1.118442 1.238677,1.118442 0.770736,0 1.238678,0.260537 1.238678,0.689655 0,0.379311 -0.334443,0.689656 -0.743207,0.689656 -0.408763,0 -0.743206,0.310345 -0.743206,0.689655 0,0.37931 -0.167222,0.689453 -0.371604,0.689207 -0.293494,-3.54e-4 -0.247312,9.261084 0.04728,9.483562 0.04211,0.03182 0.548156,0.19206 1.124523,0.356115 0.928368,0.264257 1.080663,0.07405 1.334829,-1.667021 0.157787,-1.08092 0.07639,-2.034276 -0.180867,-2.118565 -0.749307,-0.245509 -0.539558,-1.331997 0.315976,-1.636635 1.239844,-0.441485 1.693644,-0.331472 1.693644,0.410579 0,0.37931 -0.278703,0.692823 -0.619339,0.696695 -0.446295,0.0051 -0.427653,0.119691 0.06678,0.410243 0.526686,0.309527 0.627525,1.242547 0.434054,4.01595 -0.138619,1.987011 -0.415463,3.974814 -0.615231,4.417343 -0.218792,0.484699 -0.145132,0.804598 0.185275,0.804598 0.30167,0 0.548487,-0.435926 0.548487,-0.968731 0,-0.586957 0.244494,-0.88167 0.620381,-0.747821 0.396821,0.141301 0.628577,-0.213761 0.643111,-0.985292 0.104142,-5.524819 0.248272,-6.49356 0.966127,-6.49356 0.587009,0 0.755284,0.700589 0.800681,3.333334 0.05977,3.467095 0.16557,3.431573 0.684607,-0.229885 0.192831,-1.360294 0.556827,-2.183908 0.965177,-2.183908 0.508003,0 0.659162,1.293811 0.671425,5.747127 0.01456,5.287049 -0.05739,5.747127 -0.899228,5.747127 -0.55502,0 -0.999551,-0.407034 -1.129787,-1.034483 -0.184099,-0.886965 -0.224345,-0.854179 -0.282192,0.229885 -0.04717,0.883715 0.173663,1.264368 0.733494,1.264368 0.58417,0 0.737766,0.306772 0.567479,1.133385 -0.12841,0.623365 -0.01497,1.200965 0.252009,1.283558 0.743733,0.230046 -0.104875,3.100299 -0.916621,3.100299 -0.387108,0 -0.703838,0.206897 -0.703838,0.459771 0,0.252873 0.334443,0.45977 0.743207,0.45977 0.86054,0 0.983056,1.483655 0.230301,2.788846 -0.444396,0.770538 -0.345137,0.889315 0.743206,0.889315 0.78623,0 1.256112,0.257987 1.256112,0.689655 0,0.379311 -0.334443,0.689656 -0.743206,0.689656 -0.408764,0 -0.743207,0.206896 -0.743207,0.45977 0,0.252873 0.334443,0.45977 0.743207,0.45977 0.408763,0 0.743206,0.219108 0.743206,0.486906 0,0.267797 -0.203391,0.370257 -0.451983,0.227692 -0.536099,-0.307458 -0.408908,0.938644 0.148621,1.456005 0.212268,0.196974 0.31162,0.04779 0.220784,-0.331522 -0.09084,-0.379311 0.16653,-0.689656 0.571928,-0.689656 0.505019,0 0.853201,0.723789 1.105871,2.298851 0.329643,2.05481 0.247973,2.39647 -0.769291,3.218392 -0.912967,0.737645 -1.069815,1.192381 -0.792898,2.29885 0.272922,1.090534 0.357472,1.162731 0.403819,0.344828 0.03221,-0.568966 0.379252,-1.034483 0.771128,-1.034483 0.576697,0 0.684297,0.76686 0.564486,4.022989 -0.181425,4.930792 0.120503,7.011495 1.01745,7.011495 0.373103,0 0.678381,0.413793 0.678381,0.919541 0,0.505747 -0.326598,0.91954 -0.725771,0.91954 -0.399184,0 -0.964424,0.413797 -1.256112,0.919544 -1.181966,2.049397 -3.499387,0.424732 -2.705395,-1.896661 0.224892,-0.657536 0.154793,-0.874221 -0.214353,-0.66252 -0.301701,0.173026 -0.548549,1.129972 -0.548549,2.126547 0,1.612845 0.132436,1.811945 1.205285,1.811945 1.342386,0 2.033981,1.255326 1.519806,2.758621 -0.2232,0.652557 -0.08908,0.91954 0.462078,0.91954 0.446285,0 0.776599,0.391111 0.776599,0.91954 0,0.510857 -0.330314,0.919547 -0.743206,0.919547 -0.55052,0 -0.743207,0.5364 -0.743207,2.06896 0,1.44898 0.204155,2.06897 0.681273,2.06897 0.3747,0 0.823246,0.65871 0.996764,1.46378 0.294495,1.36638 -0.0041,1.89324 -1.316611,2.32499 -0.209987,0.0691 -0.465516,1.80447 -0.567841,3.856464 -0.102294,2.05198 -0.464163,4.21309 -0.804077,4.80246 -0.44228,0.76687 -0.461046,1.12013 -0.06596,1.24233 0.357462,0.11056 0.446089,0.8881 0.251441,2.20588 -0.256447,1.73618 -0.17358,2.03514 0.564156,2.03514 0.69655,0 0.825383,0.31302 0.662311,1.60919 -0.145431,1.15596 -0.0093,1.6092 0.484818,1.6092 0.528802,0 0.609037,0.42965 0.347986,1.86344 -0.33178,1.8223 -1.731651,3.68006 -3.216123,4.26811 -0.408764,0.16192 -0.03974,0.18128 0.819901,0.043 0.859715,-0.13827 1.689876,-0.061 1.844814,0.17155 0.571949,0.85877 0.504895,10.26836 -0.07556,10.60125 -0.363118,0.20825 -0.565694,1.96691 -0.565229,4.907 9.91e-4,7.62929 -0.05079,8.6698 -0.446378,8.93005 -0.711012,0.46777 -0.515662,4.15811 0.220113,4.15811 0.83686,0 0.865814,0.66495 0.0864,1.98424 -0.380914,0.64478 -0.54414,2.69121 -0.455998,5.71691 0.09166,3.1457 -0.04057,4.71264 -0.397657,4.71264 -0.294217,0 -0.534933,0.43793 -0.534933,0.97317 0,0.73419 -0.234234,0.91633 -0.953875,0.74169 -0.666852,-0.16182 -0.875012,-0.0408 -0.691801,0.40227 0.144151,0.34856 -0.09548,0.76107 -0.532538,0.9167 -0.591427,0.21059 -0.794612,0.90858 -0.794612,2.72965 0,1.54349 -0.269804,2.69708 -0.730881,3.12493 -0.492457,0.45697 -0.663508,1.30671 -0.524333,2.60481 0.327228,3.05229 -0.249727,6.4378 -1.097137,6.4378 -0.537824,0 -0.642864,0.31442 -0.402251,1.20402 0.414503,1.5325 -0.20497,7.53162 -0.777714,7.53162 -0.969801,0 -2.413335,-1.92508 -2.413335,-3.2184 0,-0.75862 0.167221,-1.37958 0.371603,-1.37993 0.204382,-3.3e-4 0.365141,-2.22447 0.357245,-4.94253 -0.01373,-4.70803 -0.06503,-4.94869 -1.084349,-5.08512 -0.588495,-0.0787 -1.169311,-0.49256 -1.290708,-0.91954 -0.156383,-0.55004 -0.237475,-0.47479 -0.278197,0.25816 -0.03272,0.58932 -0.37729,1.03448 -0.800681,1.03448 -0.577646,0 -0.750968,-0.64016 -0.778034,-2.87356 -0.06214,-5.12568 -0.704188,-4.59272 -0.854037,0.7089 -0.0801,2.83424 -0.358814,5.22213 -0.619338,5.30642 -0.283823,0.0919 -0.473681,4.65291 -0.473681,11.37931 0,9.67221 -0.102913,11.22606 -0.743206,11.22606 -0.598313,0 -0.743207,-0.71265 -0.743207,-3.65532 z M 29.334838,177.0911 c -0.183851,-2.80885 -0.475724,-5.02587 -0.648623,-4.92671 0.176166,3.54588 -0.210895,7.57858 0.722169,10.27568 0.143419,-0.13309 0.110336,-2.54012 -0.07349,-5.34897 z M 12.144607,141.98279 c -0.158158,-0.36677 -0.275564,-0.25783 -0.299347,0.27778 -0.02147,0.48467 0.09558,0.75622 0.260236,0.60345 0.164641,-0.15278 0.18224,-0.54933 0.03912,-0.88123 z m 1.981884,-10.11494 c -0.158159,-0.36678 -0.275565,-0.25783 -0.299347,0.27777 -0.02147,0.48468 0.09558,0.75623 0.260236,0.60345 0.164641,-0.15278 0.18224,-0.54933 0.03912,-0.88122 z m -0.478997,-2.55748 c 0.06389,-1.0684 0.01342,-1.12183 -0.3254,-0.34482 -0.338221,0.77555 -0.266006,1.60919 0.139382,1.60919 0.0607,0 0.14444,-0.56896 0.186018,-1.26437 z M 1.7397176,124.51152 c -0.1581585,-0.36677 -0.2755644,-0.25782 -0.299347,0.27778 -0.02147,0.48468 0.095585,0.75623 0.2602358,0.60345 0.1646408,-0.15278 0.1822404,-0.54933 0.039122,-0.88123 z M 91.35694,48.530436 c 0.176181,-0.871486 0.130546,-2.081026 -0.101365,-2.687863 -0.411241,-2.115507 -1.541668,-0.04218 -1.871446,1.053991 0.63956,0 0.771335,0.346248 0.612444,1.609196 -0.270393,2.149232 0.92651,2.170938 1.360419,0.02469 z m -3.069092,-7.380999 c 0.156858,-0.379311 0.08743,-0.689655 -0.154205,-0.689655 -0.241666,0 -0.792072,-0.125582 -1.223121,-0.279076 -0.561844,-0.200064 -0.783732,-0.0048 -0.783732,0.689655 0,1.140437 1.713359,1.361701 2.161058,0.279076 z M 52.011728,30.787358 c 0,-0.04656 -0.02293,-0.300709 -0.607792,-0.158786 -0.929019,0.22544 -1.064143,0.164222 -0.844453,-0.90219 0.138298,-0.671344 0.05946,-1.220625 -0.175304,-1.220625 -0.234719,0 -0.426766,-0.431034 -0.426766,-0.957854 0,-0.5643 -0.254465,-0.877327 -0.619339,-0.761861 -0.682924,0.216115 -0.54252,2.318604 0.171134,2.562627 0.246518,0.08429 0.448205,0.618774 0.448205,1.18774 0,1.458503 0.431432,1.689395 1.528291,0.817905 0.521978,-0.414737 0.526024,-0.520393 0.526024,-0.566956 z m 11.328965,-5.959762 c -0.526227,1.362263 -0.329024,2.979239 0.388883,4.273878 0.430555,-1.511466 0.192437,-2.97649 -0.388883,-4.273878 z M 60.9076,21.580533 c -0.457836,-1.063492 -0.484095,-1.069822 -0.513886,-0.123875 -0.01734,0.548284 0.129225,1.37587 0.325556,1.839081 0.293669,0.692859 0.384795,0.714825 0.513896,0.123875 0.08629,-0.39508 -0.06018,-1.222666 -0.325566,-1.839081 z M 52.930239,196.78165 c 0,-0.51086 0.330314,-0.91954 0.743206,-0.91954 0.412893,0 0.743207,0.40868 0.743207,0.91954 0,0.51085 -0.330314,0.91954 -0.743207,0.91954 -0.412892,0 -0.743206,-0.40869 -0.743206,-0.91954 z m -0.07504,-2.18391 c -0.04129,-0.18966 -0.13449,-1.89655 -0.207107,-3.7931 -0.07257,-1.89656 -0.292328,-4.84483 -0.488235,-6.55173 -0.337643,-2.94176 -0.302557,-3.10345 0.673335,-3.10345 0.566251,0 1.1427,0.16992 1.281019,0.37759 0.531558,0.7981 0.943594,11.11667 0.443901,11.11667 -0.274718,0 -0.392929,0.51724 -0.262693,1.14942 0.173591,0.84265 0.02302,1.14943 -0.564176,1.14943 -0.440536,0 -0.834755,-0.15518 -0.876044,-0.34483 z M 23.523067,183.33337 c -0.476777,-3.68337 -0.401497,-4.48276 0.422151,-4.48276 0.408764,0 0.743207,0.39655 0.743207,0.88123 0,0.48467 0.219421,0.95019 0.487595,1.03448 0.713406,0.22423 0.01115,4.98084 -0.735331,4.98084 -0.360063,0 -0.731728,-0.97764 -0.917622,-2.41379 z M 88.604145,30.612326 c 0,-2.025389 0.427157,-3.026109 1.291692,-3.026109 0.721014,0 0.969358,2.468105 0.389441,3.870442 -0.567666,1.372736 -1.681133,0.813508 -1.681133,-0.844333 z M 35.588755,17.241388 c 0,-1.123883 0.224139,-1.609196 0.743207,-1.609196 0.519067,0 0.743206,0.485313 0.743206,1.609196 0,1.123882 -0.224139,1.609195 -0.743206,1.609195 -0.519068,0 -0.743207,-0.485313 -0.743207,-1.609195 z m 30.223729,-0.45977 c 0,-0.379311 0.334443,-0.689656 0.743207,-0.689656 0.408763,0 0.743206,0.310345 0.743206,0.689656 0,0.37931 -0.334443,0.689655 -0.743206,0.689655 -0.408764,0 -0.743207,-0.310345 -0.743207,-0.689655 z m -0.165157,-1.455939 c -0.883662,-0.819996 -0.128048,-3.831418 0.961369,-3.831418 0.487698,0 0.690201,0.607023 0.690201,2.068965 0,1.954597 -0.671869,2.671568 -1.65157,1.762453 z m -4.294082,-1.302682 c 0,-0.379311 0.334443,-0.689656 0.743207,-0.689656 0.408763,0 0.743206,0.310345 0.743206,0.689656 0,0.37931 -0.334443,0.689655 -0.743206,0.689655 -0.408764,0 -0.743207,-0.310345 -0.743207,-0.689655 z m 7.927536,-3.218392 c 0,-1.302682 0.188754,-1.609195 0.990942,-1.609195 1.013496,0 1.297081,1.023563 0.690191,2.491132 -0.574767,1.389924 -1.681133,0.80952 -1.681133,-0.881937 z"/>
</svg>
